<svg width="252" height="140" viewBox="0 0 252 140" fill="none" xmlns="http://www.w3.org/2000/svg">
<mask id="mask0_7_3221" style="mask-type:luminance" maskUnits="userSpaceOnUse" x="72" y="0" width="104" height="95">
<path d="M80.8811 21.7901C83.7147 16.3205 87.3839 11.3864 92.087 7.50333C99.1114 1.70321 108.897 -1.36233 117.841 0.585617C128.994 3.01456 130.473 13.0154 133.597 22.7671C139.087 39.8991 154.456 33.2973 166.325 41.2979C175.736 47.642 177.706 65.6095 171.946 77.1339C164.023 92.9888 141.526 100.691 129.567 88.7281C123.303 82.4624 120.239 75.2408 111.227 76.2924C103.152 77.235 95.9481 84.0387 87.5386 81.2583C79.7112 78.6707 75.1324 69.3614 73.6518 61.6176C72.2178 54.1203 73.0696 46.3375 74.7805 38.9015C76.1369 33.0071 78.1088 27.1423 80.8811 21.7901Z" fill="white"/>
</mask>
<g mask="url(#mask0_7_3221)">
<path d="M80.8811 21.7901C83.7147 16.3205 87.3839 11.3864 92.087 7.50333C99.1114 1.70321 108.897 -1.36233 117.841 0.58562C128.994 3.01455 130.473 13.0154 133.597 22.7671C139.087 39.8991 154.456 33.2973 166.325 41.2979C175.736 47.642 177.706 65.6095 171.946 77.1339C164.023 92.9888 141.526 100.691 129.567 88.7281C123.303 82.4624 120.239 75.2408 111.227 76.2924C103.152 77.235 95.9481 84.0387 87.5386 81.2583C79.7112 78.6707 75.1324 69.3614 73.6518 61.6176C72.2178 54.1203 73.0696 46.3375 74.7805 38.9015C76.1369 33.0071 78.1088 27.1423 80.8811 21.7901Z" fill="url(#paint0_linear_7_3221)"/>
</g>
<path fill-rule="evenodd" clip-rule="evenodd" d="M82.4134 48.568C82.4134 72.6384 101.926 92.1506 125.996 92.1506C150.066 92.1506 169.579 72.6383 169.579 48.568C169.579 40.5072 167.388 32.9514 163.569 26.4706C162.983 25.4758 161.701 25.1445 160.706 25.7307C159.712 26.3169 159.38 27.5985 159.967 28.5933C163.417 34.4487 165.397 41.2741 165.397 48.568C165.397 70.329 147.757 87.9693 125.996 87.9693C104.235 87.9693 86.5947 70.329 86.5947 48.568C86.5947 26.8075 104.235 9.16682 125.996 9.16682C133.179 9.16682 139.907 11.0869 145.701 14.4407C146.701 15.0191 147.98 14.6779 148.558 13.6786C149.137 12.6792 148.795 11.4002 147.796 10.8218C141.382 7.10941 133.934 4.98547 125.996 4.98547C101.926 4.98547 82.4134 24.4982 82.4134 48.568Z" fill="#4F4F4F"/>
<path fill-rule="evenodd" clip-rule="evenodd" d="M129.534 73.3346C130.6 73.3346 131.464 72.4706 131.464 71.4047V64.3286C131.464 63.2628 130.6 62.3987 129.534 62.3987C128.468 62.3987 127.604 63.2628 127.604 64.3286V71.4047C127.604 72.4706 128.468 73.3346 129.534 73.3346Z" fill="#4F4F4F"/>
<path fill-rule="evenodd" clip-rule="evenodd" d="M129.534 33.4508C130.6 33.4508 131.464 32.5868 131.464 31.5209V24.4448C131.464 23.379 130.6 22.515 129.534 22.515C128.468 22.515 127.604 23.379 127.604 24.4448V31.5209C127.604 32.5868 128.468 33.4508 129.534 33.4508Z" fill="#4F4F4F"/>
<path fill-rule="evenodd" clip-rule="evenodd" d="M121.815 73.3346C122.88 73.3346 123.744 72.4706 123.744 71.4047V24.4449C123.744 23.3791 122.88 22.515 121.815 22.515C120.749 22.515 119.885 23.3791 119.885 24.4449V71.4047C119.885 72.4706 120.749 73.3346 121.815 73.3346Z" fill="#4F4F4F"/>
<path d="M127.077 66.2031C117.326 66.2031 111.152 59.1226 111.152 47.9261C111.152 36.8275 117.4 29.6735 127.077 29.6735C133.521 29.6735 138.764 32.981 140.846 38.2485C141.091 38.861 141.214 39.4735 141.214 39.988C141.214 41.213 140.43 41.997 139.229 41.997C138.151 41.997 137.392 41.409 136.902 40.1595C135.236 35.9945 131.438 33.7405 127.077 33.7405C120.168 33.7405 115.685 39.3265 115.685 47.9261C115.685 56.5991 120.119 62.1361 127.102 62.1361C131.708 62.1361 135.334 60.2006 137 56.2316C137.465 55.1536 138.078 54.6881 139.058 54.6881C140.234 54.6881 141.067 55.5211 141.067 56.6726C141.067 57.4321 140.871 58.0936 140.479 58.8776C138.151 63.5571 133.545 66.2031 127.077 66.2031Z" fill="#4F4F4F"/>
<path d="M10.8554 140C4.34218 140 0 135.319 0 127.878C0 120.483 4.29695 115.666 10.8102 115.666C15.2428 115.666 19.1101 118.176 20.0147 121.433C20.1052 121.727 20.1504 122.021 20.1504 122.269C20.1504 123.31 19.4946 123.988 18.4769 123.988C17.6175 123.988 17.1425 123.626 16.5998 122.609C15.3559 120.279 13.5693 119.126 10.8554 119.126C6.76203 119.126 4.00294 122.563 4.00294 127.833C4.00294 133.238 6.80727 136.54 10.8554 136.54C13.6824 136.54 15.4012 135.319 16.6224 133.057C17.1878 131.994 17.6175 131.678 18.4769 131.678C19.4946 131.678 20.173 132.379 20.173 133.396C20.173 133.69 20.1052 134.03 19.9921 134.391C18.8613 137.648 15.1298 140 10.8554 140Z" fill="#4F4F4F"/>
<path d="M31.2094 140C26.528 140 23.3844 137.173 23.3844 132.944C23.3844 128.918 26.4827 126.385 31.9105 126.069L38.6725 125.684V123.717C38.6725 120.845 36.7728 119.126 33.5162 119.126C30.9606 119.126 29.2192 120.053 27.9075 122.383C27.5457 123.038 27.0255 123.332 26.2792 123.332C25.2615 123.332 24.5378 122.631 24.5378 121.568C24.5378 121.071 24.6961 120.505 25.0127 119.94C26.3471 117.362 29.7846 115.666 33.6066 115.666C39.1248 115.666 42.6076 118.651 42.6076 123.332V138.01C42.6076 139.186 41.8387 140 40.7531 140C39.645 140 38.876 139.186 38.876 138.01V135.545H38.7856C37.3834 138.236 34.3756 140 31.2094 140ZM32.0914 136.653C35.8003 136.653 38.6725 134.052 38.6725 130.66V128.738L32.3628 129.122C29.1966 129.326 27.3874 130.728 27.3874 132.944C27.3874 135.183 29.2645 136.653 32.0914 136.653Z" fill="#4F4F4F"/>
<path d="M49.5732 140C48.4198 140 47.6056 139.141 47.6056 137.897V117.656C47.6056 116.48 48.3746 115.666 49.4601 115.666C50.5456 115.666 51.3146 116.48 51.3146 117.656V119.917H51.405C52.0835 117.475 54.3903 115.666 56.7423 115.666C57.6017 115.666 58.2123 115.869 58.5968 116.231C58.936 116.548 59.0943 117 59.0943 117.543C59.0943 118.153 58.8908 118.606 58.4837 118.922C58.0766 119.262 57.466 119.42 56.6066 119.42C53.056 119.42 51.5407 121.975 51.5407 124.983V137.897C51.5407 139.141 50.7266 140 49.5732 140Z" fill="#4F4F4F"/>
<path d="M63.934 140C62.8259 140 62.1022 139.231 62.1022 138.078V108.655C62.1022 107.411 62.9163 106.552 64.0697 106.552C65.2231 106.552 66.0373 107.411 66.0373 108.655V120.008H66.1277C67.6203 117.317 70.3568 115.666 73.6813 115.666C79.6066 115.666 83.6095 120.46 83.6095 127.833C83.6095 135.228 79.6292 140 73.6134 140C70.1759 140 67.4846 138.326 65.9468 135.613H65.8563V138.078C65.8563 139.208 65.0648 140 63.934 140ZM72.8445 136.54C77.0058 136.54 79.5839 133.215 79.5839 127.833C79.5839 122.496 77.0058 119.126 72.8445 119.126C68.8642 119.126 66.0146 122.609 66.0146 127.833C66.0146 133.08 68.8642 136.54 72.8445 136.54Z" fill="#4F4F4F"/>
<path d="M97.3371 140C90.8238 140 86.4364 135.319 86.4364 127.833C86.4364 120.325 90.8238 115.666 97.3371 115.666C103.828 115.666 108.215 120.325 108.215 127.833C108.215 135.319 103.828 140 97.3371 140ZM97.3371 136.54C101.498 136.54 104.212 133.374 104.212 127.833C104.212 122.292 101.498 119.126 97.3371 119.126C93.1759 119.126 90.4394 122.292 90.4394 127.833C90.4394 133.374 93.1759 136.54 97.3371 136.54Z" fill="#4F4F4F"/>
<path d="M114.163 140C113.01 140 112.195 139.141 112.195 137.897V117.656C112.195 116.48 112.964 115.666 114.05 115.666C115.136 115.666 115.904 116.48 115.904 117.656V119.827H115.995C117.307 117.294 119.817 115.666 123.458 115.666C128.614 115.666 131.6 118.99 131.6 124.327V137.897C131.6 139.141 130.785 140 129.632 140C128.479 140 127.664 139.141 127.664 137.897V125.029C127.664 121.229 125.878 119.149 122.259 119.149C118.55 119.149 116.131 121.772 116.131 125.752V137.897C116.131 139.141 115.316 140 114.163 140Z" fill="#4F4F4F"/>
<path d="M155.821 140C149.308 140 144.965 135.319 144.965 127.878C144.965 120.483 149.262 115.666 155.776 115.666C160.208 115.666 164.075 118.176 164.98 121.433C165.071 121.727 165.116 122.021 165.116 122.269C165.116 123.31 164.46 123.988 163.442 123.988C162.583 123.988 162.108 123.626 161.565 122.609C160.321 120.279 158.535 119.126 155.821 119.126C151.727 119.126 148.968 122.563 148.968 127.833C148.968 133.238 151.773 136.54 155.821 136.54C158.648 136.54 160.367 135.319 161.588 133.057C162.153 131.994 162.583 131.678 163.442 131.678C164.46 131.678 165.138 132.379 165.138 133.396C165.138 133.69 165.071 134.03 164.957 134.391C163.827 137.648 160.095 140 155.821 140Z" fill="#4F4F4F"/>
<path d="M171.29 140C170.136 140 169.322 139.141 169.322 137.897V117.656C169.322 116.48 170.091 115.666 171.177 115.666C172.262 115.666 173.031 116.48 173.031 117.656V119.917H173.122C173.8 117.475 176.107 115.666 178.459 115.666C179.318 115.666 179.929 115.869 180.313 116.231C180.653 116.548 180.811 117 180.811 117.543C180.811 118.153 180.607 118.606 180.2 118.922C179.793 119.262 179.183 119.42 178.323 119.42C174.773 119.42 173.257 121.975 173.257 124.983V137.897C173.257 139.141 172.443 140 171.29 140Z" fill="#4F4F4F"/>
<path d="M192.345 140C185.402 140 181.331 135.522 181.331 127.923C181.331 120.505 185.515 115.666 192.006 115.666C198.021 115.666 202.25 120.166 202.25 126.612C202.25 128.036 201.436 128.896 200.079 128.896H185.379C185.379 133.645 187.98 136.585 192.187 136.585C194.991 136.585 196.71 135.59 198.541 132.921C198.949 132.356 199.401 132.13 200.011 132.13C201.052 132.13 201.753 132.808 201.753 133.849C201.753 134.165 201.64 134.572 201.459 135.002C199.944 138.191 196.642 140 192.345 140ZM185.402 125.82H198.18C198.089 121.749 195.579 119.081 191.938 119.081C188.274 119.081 185.651 121.772 185.402 125.82Z" fill="#4F4F4F"/>
<path d="M215.141 140C209.148 140 205.077 135.206 205.077 127.833C205.077 120.46 209.126 115.666 215.051 115.666C218.421 115.666 221.134 117.317 222.537 119.895H222.627V108.655C222.627 107.411 223.441 106.552 224.595 106.552C225.748 106.552 226.562 107.411 226.562 108.655V138.078C226.562 139.208 225.771 140 224.64 140C223.532 140 222.627 139.231 222.627 138.078V135.386H222.559C221.27 138.191 218.828 140 215.141 140ZM215.888 136.54C219.936 136.54 222.65 133.102 222.65 127.833C222.65 122.586 219.936 119.126 215.888 119.126C211.726 119.126 209.103 122.518 209.103 127.833C209.103 133.17 211.726 136.54 215.888 136.54Z" fill="#4F4F4F"/>
<path d="M234.048 112.115C232.714 112.115 231.605 111.007 231.605 109.673C231.605 108.316 232.714 107.23 234.048 107.23C235.405 107.23 236.513 108.316 236.513 109.673C236.513 111.007 235.405 112.115 234.048 112.115ZM234.048 140C232.894 140 232.08 139.141 232.08 137.897V117.769C232.08 116.525 232.894 115.666 234.048 115.666C235.201 115.666 236.015 116.525 236.015 117.769V137.897C236.015 139.141 235.201 140 234.048 140Z" fill="#4F4F4F"/>
<path d="M242.596 134.165V119.307H240.629C239.498 119.307 238.865 118.719 238.865 117.679C238.865 116.661 239.498 116.073 240.629 116.073H242.596V112.047C242.596 110.803 243.411 109.944 244.564 109.944C245.717 109.944 246.532 110.803 246.532 112.047V116.073H249.562C250.693 116.073 251.326 116.661 251.326 117.679C251.326 118.719 250.693 119.307 249.562 119.307H246.532V133.306C246.532 135.296 247.233 136.246 249.2 136.382L249.539 136.404C250.829 136.495 251.417 137.015 251.417 137.942C251.417 139.141 250.738 139.774 248.544 139.774H248.296C244.496 139.774 242.596 137.919 242.596 134.165Z" fill="#4F4F4F"/>
<defs>
<linearGradient id="paint0_linear_7_3221" x1="72.9251" y1="47.2815" x2="175.18" y2="47.2815" gradientUnits="userSpaceOnUse">
<stop stop-color="#E7FB50"/>
<stop offset="1" stop-color="#6CD9E7"/>
</linearGradient>
</defs>
</svg>
